<?xml version="1.0" encoding="utf-8"?>
<svg version="1.0" xmlns="http://www.w3.org/2000/svg" width="900" height="600">
  <rect width="900" height="600" style="fill: rgb(206, 17, 38); pointer-events: none;"/>
  <rect width="600" height="600" fill="#fff" style="pointer-events: none;"/>
  <rect width="300" height="600" style="fill: rgb(0, 38, 84); pointer-events: none;"/>
  <path d="M 300,400 V 600 H 0 z" fill="#000" style=""/>
  <path d="M 600,200 V 600 H 300 V 400 z" style="fill: rgb(253, 218, 37);"/>
  <path d="M 900 0 L 900 600 L 600 600 L 600 200 Z" style="fill: rgb(239, 51, 64);"/>
  <path d="M 536.2 377.504 L 624.4 306.104 L 604.5 296.804 C 601.7 295.504 600.3 292.304 601.3 289.404 L 618.7 235.8 L 567.9 246.6 C 565.1 247.2 562.2 245.7 561.1 243 L 551.3 219.8 L 511.6 262.4 C 509.3 264.8 505.4 264.9 503 262.6 C 501.5 261.2 500.8 259 501.2 257 L 520.3 158.4 L 489.6 176.1 C 486.7 177.8 483 176.8 481.3 173.9 C 481.2 173.8 481.2 173.7 481.1 173.6 L 450 112.5 L 419.1 173.8 C 417.6 176.8 413.9 178 410.9 176.5 C 410.7 176.4 410.6 176.4 410.5 176.3 L 379.8 158.6 L 398.9 257.2 C 399.6 260.5 397.4 263.7 394.1 264.3 C 392 264.7 389.9 264 388.5 262.5 L 348.8 219.9 L 339 243.1 C 337.9 245.8 335 247.3 332.2 246.7 L 281.4 235.9 L 298.8 289.504 C 299.7 292.404 298.4 295.604 295.6 296.904 L 275.7 306.204 L 363.9 377.604 C 366 379.204 366.7 381.904 365.8 384.404 L 354.9 414.404 L 435.4 400.204 C 440.3 399.404 444.9 402.704 445.7 407.504 C 445.8 408.104 445.8 408.804 445.8 409.404 L 441.6 490.304 L 458.5 490.304 L 454.3 409.404 C 454.1 404.504 457.9 400.304 462.8 400.104 C 463.4 400.104 464.1 400.104 464.7 400.204 L 545.2 414.404 L 534.3 384.404 C 533.4 381.904 534.1 379.204 536.2 377.504 Z" class="st0" style="stroke-width: 1; fill: rgb(213, 43, 30);"/>
</svg>